# xmcd
#
# Track frame offsets:
#       182
#       23757
#       36035
#       66700
#       82887
#       106697
#       130217
#       147200
#       165237
#       184405
#       200042
#       223200
#       244527
#       258640
#       277380
#       297525
#       320882
#
# Disc length: 4526 seconds
#
#
# Revision: 0
# Processed by: cddbd v1.5.1PL0 Copyright (c) Steve Scherf et al.
# Submitted via: Visual Ripper tool of Visual MP3 v4.18
#
DISCID=1211ac11
DTITLE=iProgramDev.com - Demo
DYEAR=1900
DGENRE=Blues
TTITLE0=ALRIGHT
TTITLE1=JNEDWE
TTITLE2=EWWE
TTITLE3=EWFEW
TTITLE4=W
TTITLE5=WEF
TTITLE6=WFEWRF
TTITLE7=WEFERF
TTITLE8=WEF
TTITLE9=REFER
TTITLE10=REWFR
TTITLE11=ERFER
TTITLE12=EWFR
TTITLE13=WEFEWRF
TTITLE14=EWFEWF
TTITLE15=WEF
TTITLE16=WEF
EXTD=
EXTT0=
EXTT1=
EXTT2=
EXTT3=
EXTT4=
EXTT5=
EXTT6=
EXTT7=
EXTT8=
EXTT9=
EXTT10=
EXTT11=
EXTT12=
EXTT13=
EXTT14=
EXTT15=
EXTT16=
PLAYORDER=
